<?xml version="1.0" encoding="utf-8"?>
<!-- Generator: Adobe Illustrator 26.0.1, SVG Export Plug-In . SVG Version: 6.00 Build 0)  -->
<svg version="1.1" id="Capa_1" xmlns="http://www.w3.org/2000/svg" xmlns:xlink="http://www.w3.org/1999/xlink" x="0px" y="0px"
	 viewBox="0 0 60 60" style="enable-background:new 0 0 60 60;" xml:space="preserve">
<style type="text/css">
	.st0{fill:#939393;}
</style>
<g>
	<path class="st0" d="M55.8,15.7H4.2c-2.3,0-4.2,1.6-4.2,3.5v29.6c0,1.9,1.9,3.5,4.2,3.5h51.6c2.3,0,4.2-1.6,4.2-3.5V19.2
		C60,17.2,58.1,15.7,55.8,15.7z M5.5,27.5c0-0.6,0.6-1.2,1.4-1.2h3.7h4.6c0.8,0,1.4,0.5,1.4,1.2v0.8v4.3c0,0.6-0.6,1.2-1.4,1.2h-3.7
		h-0.9H6.9c-0.8,0-1.4-0.5-1.4-1.2V27.5z M15.8,43.6h-10v-1.7h10V43.6z M28.2,43.6h-8.8v-1.7h8.8V43.6z M40.1,43.6h-8.3v-1.7h8.3
		V43.6z M52,43.6h-7.6v-1.7H52V43.6z M31.1,39.7H5.8v-2.2h25.3C31.1,37.5,31.1,39.7,31.1,39.7z"/>
</g>
</svg>
